<svg xmlns="http://www.w3.org/2000/svg" width="488" height="128">
    <style>line, path, circle,rect,polygon {
                          stroke: black;
                          stroke-width: 2;
                          stroke-opacity: 1;
                          fill-opacity: 1;
                          stroke-linecap: round;
                          stroke-linejoin: miter;
                        }

                    text {
                        fill: black;
                        }
                        rect.backdrop{
                            stroke: none;
                            fill: white;
                        }
                        .broken{
                            stroke-dasharray: 8;
                        }
                        .filled{
                            fill: black;
                        }
                        .bg_filled{
                            fill: white;
                        }
                        .nofill{
                            fill: white;
                        }

                        text {
                         font-family: monospace;
                         font-size: 14px;
                        }

                        .end_marked_arrow{
                            marker-end: url(#arrow);
                         }
                        .start_marked_arrow{
                            marker-start: url(#arrow);
                         }

                        .end_marked_diamond{
                            marker-end: url(#diamond);
                         }
                        .start_marked_diamond{
                            marker-start: url(#diamond);
                         }

                        .end_marked_circle{
                            marker-end: url(#circle);
                         }
                        .start_marked_circle{
                            marker-start: url(#circle);
                         }

                        .end_marked_open_circle{
                            marker-end: url(#open_circle);
                         }
                        .start_marked_open_circle{
                            marker-start: url(#open_circle);
                         }

                        .end_marked_big_open_circle{
                            marker-end: url(#big_open_circle);
                         }
                        .start_marked_big_open_circle{
                            marker-start: url(#big_open_circle);
                         }

                         
                        </style>
    <defs>
        <marker id="arrow" viewBox="-2 -2 8 8" refX="4" refY="2" markerWidth="7" markerHeight="7" orient="auto-start-reverse">
            <polygon points="0,0 0,4 4,2 0,0"></polygon>
        </marker>
        <marker id="diamond" viewBox="-2 -2 8 8" refX="4" refY="2" markerWidth="7" markerHeight="7" orient="auto-start-reverse">
            <polygon points="0,2 2,0 4,2 2,4 0,2"></polygon>
        </marker>
        <marker id="circle" viewBox="0 0 8 8" refX="4" refY="4" markerWidth="7" markerHeight="7" orient="auto-start-reverse">
            <circle cx="4" cy="4" r="2" class="filled"></circle>
        </marker>
        <marker id="open_circle" viewBox="0 0 8 8" refX="4" refY="4" markerWidth="7" markerHeight="7" orient="auto-start-reverse">
            <circle cx="4" cy="4" r="2" class="bg_filled"></circle>
        </marker>
        <marker id="big_open_circle" viewBox="0 0 8 8" refX="4" refY="4" markerWidth="7" markerHeight="7" orient="auto-start-reverse">
            <circle cx="4" cy="4" r="3" class="bg_filled"></circle>
        </marker>
    </defs>
    <rect class="backdrop" x="0" y="0" width="488" height="128"></rect>
    <rect x="8" y="16" width="8" height="16" class="solid filled" rx="0"></rect>
    <rect x="16" y="16" width="8" height="16" class="solid filled" rx="0"></rect>
    <rect x="24" y="16" width="8" height="16" class="solid filled" rx="0"></rect>
    <rect x="32" y="16" width="8" height="16" class="solid filled" rx="0"></rect>
    <rect x="40" y="16" width="8" height="16" class="solid filled" rx="0"></rect>
    <rect x="48" y="16" width="8" height="16" class="solid filled" rx="0"></rect>
    <rect x="72" y="16" width="8" height="16" class="solid filled" rx="0"></rect>
    <rect x="80" y="16" width="8" height="16" class="solid filled" rx="0"></rect>
    <rect x="88" y="16" width="8" height="16" class="solid filled" rx="0"></rect>
    <rect x="96" y="16" width="8" height="16" class="solid filled" rx="0"></rect>
    <rect x="104" y="16" width="8" height="16" class="solid filled" rx="0"></rect>
    <rect x="112" y="16" width="8" height="16" class="solid filled" rx="0"></rect>
    <rect x="136" y="16" width="8" height="16" class="solid filled" rx="0"></rect>
    <rect x="144" y="16" width="8" height="16" class="solid filled" rx="0"></rect>
    <rect x="152" y="16" width="8" height="16" class="solid filled" rx="0"></rect>
    <rect x="192" y="16" width="8" height="16" class="solid filled" rx="0"></rect>
    <rect x="200" y="16" width="8" height="16" class="solid filled" rx="0"></rect>
    <rect x="216" y="16" width="8" height="16" class="solid filled" rx="0"></rect>
    <rect x="224" y="16" width="8" height="16" class="solid filled" rx="0"></rect>
    <rect x="232" y="16" width="8" height="16" class="solid filled" rx="0"></rect>
    <rect x="240" y="16" width="8" height="16" class="solid filled" rx="0"></rect>
    <rect x="248" y="16" width="8" height="16" class="solid filled" rx="0"></rect>
    <rect x="256" y="16" width="8" height="16" class="solid filled" rx="0"></rect>
    <rect x="264" y="16" width="8" height="16" class="solid filled" rx="0"></rect>
    <rect x="288" y="16" width="8" height="16" class="solid filled" rx="0"></rect>
    <rect x="296" y="16" width="8" height="16" class="solid filled" rx="0"></rect>
    <rect x="304" y="16" width="8" height="16" class="solid filled" rx="0"></rect>
    <rect x="312" y="16" width="8" height="16" class="solid filled" rx="0"></rect>
    <rect x="320" y="16" width="8" height="16" class="solid filled" rx="0"></rect>
    <rect x="328" y="16" width="8" height="16" class="solid filled" rx="0"></rect>
    <rect x="352" y="16" width="8" height="16" class="solid filled" rx="0"></rect>
    <rect x="360" y="16" width="8" height="16" class="solid filled" rx="0"></rect>
    <rect x="416" y="16" width="8" height="16" class="solid filled" rx="0"></rect>
    <rect x="424" y="16" width="8" height="16" class="solid filled" rx="0"></rect>
    <rect x="432" y="16" width="8" height="16" class="solid filled" rx="0"></rect>
    <rect x="440" y="16" width="8" height="16" class="solid filled" rx="0"></rect>
    <rect x="448" y="16" width="8" height="16" class="solid filled" rx="0"></rect>
    <rect x="456" y="16" width="8" height="16" class="solid filled" rx="0"></rect>
    <rect x="464" y="16" width="8" height="16" class="solid filled" rx="0"></rect>
    <rect x="0" y="32" width="8" height="16" class="solid filled" rx="0"></rect>
    <rect x="8" y="32" width="8" height="16" class="solid filled" rx="0"></rect>
    <rect x="64" y="32" width="8" height="16" class="solid filled" rx="0"></rect>
    <rect x="72" y="32" width="8" height="16" class="solid filled" rx="0"></rect>
    <rect x="112" y="32" width="8" height="16" class="solid filled" rx="0"></rect>
    <rect x="120" y="32" width="8" height="16" class="solid filled" rx="0"></rect>
    <rect x="136" y="32" width="8" height="16" class="solid filled" rx="0"></rect>
    <rect x="144" y="32" width="8" height="16" class="solid filled" rx="0"></rect>
    <rect x="152" y="32" width="8" height="16" class="solid filled" rx="0"></rect>
    <rect x="160" y="32" width="8" height="16" class="solid filled" rx="0"></rect>
    <rect x="192" y="32" width="8" height="16" class="solid filled" rx="0"></rect>
    <rect x="200" y="32" width="8" height="16" class="solid filled" rx="0"></rect>
    <rect x="216" y="32" width="8" height="16" class="solid filled" rx="0"></rect>
    <rect x="224" y="32" width="8" height="16" class="solid filled" rx="0"></rect>
    <rect x="280" y="32" width="8" height="16" class="solid filled" rx="0"></rect>
    <rect x="288" y="32" width="8" height="16" class="solid filled" rx="0"></rect>
    <rect x="328" y="32" width="8" height="16" class="solid filled" rx="0"></rect>
    <rect x="336" y="32" width="8" height="16" class="solid filled" rx="0"></rect>
    <rect x="352" y="32" width="8" height="16" class="solid filled" rx="0"></rect>
    <rect x="360" y="32" width="8" height="16" class="solid filled" rx="0"></rect>
    <rect x="416" y="32" width="8" height="16" class="solid filled" rx="0"></rect>
    <rect x="424" y="32" width="8" height="16" class="solid filled" rx="0"></rect>
    <rect x="0" y="48" width="8" height="16" class="solid filled" rx="0"></rect>
    <rect x="8" y="48" width="8" height="16" class="solid filled" rx="0"></rect>
    <rect x="64" y="48" width="8" height="16" class="solid filled" rx="0"></rect>
    <rect x="72" y="48" width="8" height="16" class="solid filled" rx="0"></rect>
    <rect x="112" y="48" width="8" height="16" class="solid filled" rx="0"></rect>
    <rect x="120" y="48" width="8" height="16" class="solid filled" rx="0"></rect>
    <rect x="136" y="48" width="8" height="16" class="solid filled" rx="0"></rect>
    <rect x="144" y="48" width="8" height="16" class="solid filled" rx="0"></rect>
    <rect x="160" y="48" width="8" height="16" class="solid filled" rx="0"></rect>
    <rect x="168" y="48" width="8" height="16" class="solid filled" rx="0"></rect>
    <rect x="192" y="48" width="8" height="16" class="solid filled" rx="0"></rect>
    <rect x="200" y="48" width="8" height="16" class="solid filled" rx="0"></rect>
    <rect x="216" y="48" width="8" height="16" class="solid filled" rx="0"></rect>
    <rect x="224" y="48" width="8" height="16" class="solid filled" rx="0"></rect>
    <rect x="232" y="48" width="8" height="16" class="solid filled" rx="0"></rect>
    <rect x="240" y="48" width="8" height="16" class="solid filled" rx="0"></rect>
    <rect x="248" y="48" width="8" height="16" class="solid filled" rx="0"></rect>
    <rect x="256" y="48" width="8" height="16" class="solid filled" rx="0"></rect>
    <rect x="264" y="48" width="8" height="16" class="solid filled" rx="0"></rect>
    <rect x="280" y="48" width="8" height="16" class="solid filled" rx="0"></rect>
    <rect x="288" y="48" width="8" height="16" class="solid filled" rx="0"></rect>
    <rect x="328" y="48" width="8" height="16" class="solid filled" rx="0"></rect>
    <rect x="336" y="48" width="8" height="16" class="solid filled" rx="0"></rect>
    <rect x="352" y="48" width="8" height="16" class="solid filled" rx="0"></rect>
    <rect x="360" y="48" width="8" height="16" class="solid filled" rx="0"></rect>
    <rect x="416" y="48" width="8" height="16" class="solid filled" rx="0"></rect>
    <rect x="424" y="48" width="8" height="16" class="solid filled" rx="0"></rect>
    <rect x="432" y="48" width="8" height="16" class="solid filled" rx="0"></rect>
    <rect x="440" y="48" width="8" height="16" class="solid filled" rx="0"></rect>
    <rect x="448" y="48" width="8" height="16" class="solid filled" rx="0"></rect>
    <rect x="0" y="64" width="8" height="16" class="solid filled" rx="0"></rect>
    <rect x="8" y="64" width="8" height="16" class="solid filled" rx="0"></rect>
    <rect x="64" y="64" width="8" height="16" class="solid filled" rx="0"></rect>
    <rect x="72" y="64" width="8" height="16" class="solid filled" rx="0"></rect>
    <rect x="112" y="64" width="8" height="16" class="solid filled" rx="0"></rect>
    <rect x="120" y="64" width="8" height="16" class="solid filled" rx="0"></rect>
    <rect x="136" y="64" width="8" height="16" class="solid filled" rx="0"></rect>
    <rect x="144" y="64" width="8" height="16" class="solid filled" rx="0"></rect>
    <rect x="168" y="64" width="8" height="16" class="solid filled" rx="0"></rect>
    <rect x="176" y="64" width="8" height="16" class="solid filled" rx="0"></rect>
    <rect x="192" y="64" width="8" height="16" class="solid filled" rx="0"></rect>
    <rect x="200" y="64" width="8" height="16" class="solid filled" rx="0"></rect>
    <rect x="256" y="64" width="8" height="16" class="solid filled" rx="0"></rect>
    <rect x="264" y="64" width="8" height="16" class="solid filled" rx="0"></rect>
    <rect x="280" y="64" width="8" height="16" class="solid filled" rx="0"></rect>
    <rect x="288" y="64" width="8" height="16" class="solid filled" rx="0"></rect>
    <rect x="328" y="64" width="8" height="16" class="solid filled" rx="0"></rect>
    <rect x="336" y="64" width="8" height="16" class="solid filled" rx="0"></rect>
    <rect x="352" y="64" width="8" height="16" class="solid filled" rx="0"></rect>
    <rect x="360" y="64" width="8" height="16" class="solid filled" rx="0"></rect>
    <rect x="416" y="64" width="8" height="16" class="solid filled" rx="0"></rect>
    <rect x="424" y="64" width="8" height="16" class="solid filled" rx="0"></rect>
    <rect x="8" y="80" width="8" height="16" class="solid filled" rx="0"></rect>
    <rect x="16" y="80" width="8" height="16" class="solid filled" rx="0"></rect>
    <rect x="24" y="80" width="8" height="16" class="solid filled" rx="0"></rect>
    <rect x="32" y="80" width="8" height="16" class="solid filled" rx="0"></rect>
    <rect x="40" y="80" width="8" height="16" class="solid filled" rx="0"></rect>
    <rect x="48" y="80" width="8" height="16" class="solid filled" rx="0"></rect>
    <rect x="72" y="80" width="8" height="16" class="solid filled" rx="0"></rect>
    <rect x="80" y="80" width="8" height="16" class="solid filled" rx="0"></rect>
    <rect x="88" y="80" width="8" height="16" class="solid filled" rx="0"></rect>
    <rect x="96" y="80" width="8" height="16" class="solid filled" rx="0"></rect>
    <rect x="104" y="80" width="8" height="16" class="solid filled" rx="0"></rect>
    <rect x="112" y="80" width="8" height="16" class="solid filled" rx="0"></rect>
    <rect x="136" y="80" width="8" height="16" class="solid filled" rx="0"></rect>
    <rect x="144" y="80" width="8" height="16" class="solid filled" rx="0"></rect>
    <rect x="176" y="80" width="8" height="16" class="solid filled" rx="0"></rect>
    <rect x="184" y="80" width="8" height="16" class="solid filled" rx="0"></rect>
    <rect x="192" y="80" width="8" height="16" class="solid filled" rx="0"></rect>
    <rect x="200" y="80" width="8" height="16" class="solid filled" rx="0"></rect>
    <rect x="216" y="80" width="8" height="16" class="solid filled" rx="0"></rect>
    <rect x="224" y="80" width="8" height="16" class="solid filled" rx="0"></rect>
    <rect x="232" y="80" width="8" height="16" class="solid filled" rx="0"></rect>
    <rect x="240" y="80" width="8" height="16" class="solid filled" rx="0"></rect>
    <rect x="248" y="80" width="8" height="16" class="solid filled" rx="0"></rect>
    <rect x="256" y="80" width="8" height="16" class="solid filled" rx="0"></rect>
    <rect x="264" y="80" width="8" height="16" class="solid filled" rx="0"></rect>
    <rect x="288" y="80" width="8" height="16" class="solid filled" rx="0"></rect>
    <rect x="296" y="80" width="8" height="16" class="solid filled" rx="0"></rect>
    <rect x="304" y="80" width="8" height="16" class="solid filled" rx="0"></rect>
    <rect x="312" y="80" width="8" height="16" class="solid filled" rx="0"></rect>
    <rect x="320" y="80" width="8" height="16" class="solid filled" rx="0"></rect>
    <rect x="328" y="80" width="8" height="16" class="solid filled" rx="0"></rect>
    <rect x="352" y="80" width="8" height="16" class="solid filled" rx="0"></rect>
    <rect x="360" y="80" width="8" height="16" class="solid filled" rx="0"></rect>
    <rect x="368" y="80" width="8" height="16" class="solid filled" rx="0"></rect>
    <rect x="376" y="80" width="8" height="16" class="solid filled" rx="0"></rect>
    <rect x="384" y="80" width="8" height="16" class="solid filled" rx="0"></rect>
    <rect x="392" y="80" width="8" height="16" class="solid filled" rx="0"></rect>
    <rect x="400" y="80" width="8" height="16" class="solid filled" rx="0"></rect>
    <rect x="416" y="80" width="8" height="16" class="solid filled" rx="0"></rect>
    <rect x="424" y="80" width="8" height="16" class="solid filled" rx="0"></rect>
    <rect x="432" y="80" width="8" height="16" class="solid filled" rx="0"></rect>
    <rect x="440" y="80" width="8" height="16" class="solid filled" rx="0"></rect>
    <rect x="448" y="80" width="8" height="16" class="solid filled" rx="0"></rect>
    <rect x="456" y="80" width="8" height="16" class="solid filled" rx="0"></rect>
    <rect x="464" y="80" width="8" height="16" class="solid filled" rx="0"></rect>
    <g>
        <line x1="56" y1="24" x2="62" y2="24" class="solid"></line>
        <line x1="62" y1="24" x2="62" y2="44" class="solid"></line>
        <line x1="22" y1="44" x2="62" y2="44" class="solid"></line>
        <line x1="22" y1="44" x2="22" y2="80" class="solid"></line>
    </g>
    <g>
        <line x1="56" y1="28" x2="58" y2="28" class="solid"></line>
        <line x1="58" y1="28" x2="58" y2="40" class="solid"></line>
        <line x1="18" y1="40" x2="58" y2="40" class="solid"></line>
        <line x1="18" y1="40" x2="18" y2="80" class="solid"></line>
    </g>
    <g>
        <line x1="120" y1="24" x2="126" y2="24" class="solid"></line>
        <line x1="126" y1="24" x2="126" y2="32" class="solid"></line>
    </g>
    <g>
        <line x1="120" y1="28" x2="122" y2="28" class="solid"></line>
        <line x1="122" y1="28" x2="122" y2="32" class="solid"></line>
    </g>
    <g>
        <line x1="160" y1="24" x2="166" y2="24" class="solid"></line>
        <line x1="166" y1="24" x2="166" y2="32" class="solid"></line>
    </g>
    <g>
        <line x1="160" y1="28" x2="162" y2="28" class="solid"></line>
        <line x1="162" y1="28" x2="162" y2="32" class="solid"></line>
    </g>
    <g>
        <line x1="208" y1="24" x2="214" y2="24" class="solid"></line>
        <line x1="214" y1="24" x2="214" y2="108" class="solid"></line>
        <line x1="178" y1="96" x2="178" y2="108" class="solid"></line>
        <line x1="178" y1="108" x2="214" y2="108" class="solid"></line>
    </g>
    <g>
        <line x1="208" y1="28" x2="210" y2="28" class="solid"></line>
        <line x1="210" y1="28" x2="210" y2="104" class="solid"></line>
        <line x1="182" y1="96" x2="182" y2="104" class="solid"></line>
        <line x1="182" y1="104" x2="210" y2="104" class="solid"></line>
    </g>
    <g>
        <line x1="272" y1="24" x2="278" y2="24" class="solid"></line>
        <line x1="278" y1="24" x2="278" y2="44" class="solid"></line>
        <line x1="238" y1="44" x2="278" y2="44" class="solid"></line>
        <line x1="238" y1="44" x2="238" y2="48" class="solid"></line>
    </g>
    <g>
        <line x1="272" y1="28" x2="274" y2="28" class="solid"></line>
        <line x1="274" y1="28" x2="274" y2="40" class="solid"></line>
        <line x1="234" y1="40" x2="274" y2="40" class="solid"></line>
        <line x1="234" y1="40" x2="234" y2="48" class="solid"></line>
    </g>
    <g>
        <line x1="336" y1="24" x2="342" y2="24" class="solid"></line>
        <line x1="342" y1="24" x2="342" y2="32" class="solid"></line>
    </g>
    <g>
        <line x1="336" y1="28" x2="338" y2="28" class="solid"></line>
        <line x1="338" y1="28" x2="338" y2="32" class="solid"></line>
    </g>
    <g>
        <line x1="368" y1="24" x2="374" y2="24" class="solid"></line>
        <line x1="374" y1="24" x2="374" y2="80" class="solid"></line>
    </g>
    <g>
        <line x1="368" y1="28" x2="370" y2="28" class="solid"></line>
        <line x1="370" y1="28" x2="370" y2="80" class="solid"></line>
    </g>
    <g>
        <line x1="472" y1="24" x2="478" y2="24" class="solid"></line>
        <line x1="478" y1="24" x2="478" y2="44" class="solid"></line>
        <line x1="438" y1="44" x2="478" y2="44" class="solid"></line>
        <line x1="438" y1="44" x2="438" y2="48" class="solid"></line>
    </g>
    <g>
        <line x1="472" y1="28" x2="474" y2="28" class="solid"></line>
        <line x1="474" y1="28" x2="474" y2="40" class="solid"></line>
        <line x1="434" y1="40" x2="474" y2="40" class="solid"></line>
        <line x1="434" y1="40" x2="434" y2="48" class="solid"></line>
    </g>
    <g>
        <line x1="82" y1="40" x2="112" y2="40" class="solid"></line>
        <line x1="82" y1="40" x2="82" y2="80" class="solid"></line>
    </g>
    <g>
        <line x1="86" y1="44" x2="112" y2="44" class="solid"></line>
        <line x1="86" y1="44" x2="86" y2="80" class="solid"></line>
    </g>
    <g>
        <line x1="128" y1="40" x2="134" y2="40" class="solid"></line>
        <line x1="134" y1="40" x2="134" y2="92" class="solid"></line>
        <line x1="126" y1="92" x2="134" y2="92" class="solid"></line>
        <line x1="126" y1="92" x2="126" y2="108" class="solid"></line>
        <line x1="74" y1="96" x2="74" y2="108" class="solid"></line>
        <line x1="74" y1="108" x2="126" y2="108" class="solid"></line>
    </g>
    <g>
        <line x1="128" y1="44" x2="130" y2="44" class="solid"></line>
        <line x1="130" y1="44" x2="130" y2="88" class="solid"></line>
        <line x1="122" y1="88" x2="130" y2="88" class="solid"></line>
        <line x1="122" y1="88" x2="122" y2="104" class="solid"></line>
        <line x1="78" y1="96" x2="78" y2="104" class="solid"></line>
        <line x1="78" y1="104" x2="122" y2="104" class="solid"></line>
    </g>
    <g>
        <line x1="168" y1="40" x2="174" y2="40" class="solid"></line>
        <line x1="174" y1="40" x2="174" y2="48" class="solid"></line>
    </g>
    <g>
        <line x1="168" y1="44" x2="170" y2="44" class="solid"></line>
        <line x1="170" y1="44" x2="170" y2="48" class="solid"></line>
    </g>
    <g>
        <line x1="298" y1="40" x2="328" y2="40" class="solid"></line>
        <line x1="298" y1="40" x2="298" y2="80" class="solid"></line>
    </g>
    <g>
        <line x1="302" y1="44" x2="328" y2="44" class="solid"></line>
        <line x1="302" y1="44" x2="302" y2="80" class="solid"></line>
    </g>
    <g>
        <line x1="344" y1="40" x2="350" y2="40" class="solid"></line>
        <line x1="350" y1="40" x2="350" y2="92" class="solid"></line>
        <line x1="342" y1="92" x2="350" y2="92" class="solid"></line>
        <line x1="342" y1="92" x2="342" y2="108" class="solid"></line>
        <line x1="290" y1="96" x2="290" y2="108" class="solid"></line>
        <line x1="290" y1="108" x2="342" y2="108" class="solid"></line>
    </g>
    <g>
        <line x1="344" y1="44" x2="346" y2="44" class="solid"></line>
        <line x1="346" y1="44" x2="346" y2="88" class="solid"></line>
        <line x1="338" y1="88" x2="346" y2="88" class="solid"></line>
        <line x1="338" y1="88" x2="338" y2="104" class="solid"></line>
        <line x1="294" y1="96" x2="294" y2="104" class="solid"></line>
        <line x1="294" y1="104" x2="338" y2="104" class="solid"></line>
    </g>
    <g>
        <line x1="154" y1="56" x2="160" y2="56" class="solid"></line>
        <line x1="154" y1="56" x2="154" y2="104" class="solid"></line>
        <line x1="142" y1="96" x2="142" y2="104" class="solid"></line>
        <line x1="142" y1="104" x2="154" y2="104" class="solid"></line>
    </g>
    <g>
        <line x1="158" y1="60" x2="160" y2="60" class="solid"></line>
        <line x1="158" y1="60" x2="158" y2="108" class="solid"></line>
        <line x1="138" y1="96" x2="138" y2="108" class="solid"></line>
        <line x1="138" y1="108" x2="158" y2="108" class="solid"></line>
    </g>
    <g>
        <line x1="176" y1="56" x2="182" y2="56" class="solid"></line>
        <line x1="182" y1="56" x2="182" y2="64" class="solid"></line>
    </g>
    <g>
        <line x1="176" y1="60" x2="178" y2="60" class="solid"></line>
        <line x1="178" y1="60" x2="178" y2="64" class="solid"></line>
    </g>
    <g>
        <line x1="272" y1="56" x2="278" y2="56" class="solid"></line>
        <line x1="278" y1="56" x2="278" y2="108" class="solid"></line>
        <line x1="218" y1="96" x2="218" y2="108" class="solid"></line>
        <line x1="218" y1="108" x2="278" y2="108" class="solid"></line>
    </g>
    <g>
        <line x1="272" y1="60" x2="274" y2="60" class="solid"></line>
        <line x1="274" y1="60" x2="274" y2="104" class="solid"></line>
        <line x1="222" y1="96" x2="222" y2="104" class="solid"></line>
        <line x1="222" y1="104" x2="274" y2="104" class="solid"></line>
    </g>
    <g>
        <line x1="456" y1="56" x2="462" y2="56" class="solid"></line>
        <line x1="462" y1="56" x2="462" y2="76" class="solid"></line>
        <line x1="438" y1="76" x2="462" y2="76" class="solid"></line>
        <line x1="438" y1="76" x2="438" y2="80" class="solid"></line>
    </g>
    <g>
        <line x1="456" y1="60" x2="458" y2="60" class="solid"></line>
        <line x1="458" y1="60" x2="458" y2="72" class="solid"></line>
        <line x1="434" y1="72" x2="458" y2="72" class="solid"></line>
        <line x1="434" y1="72" x2="434" y2="80" class="solid"></line>
    </g>
    <g>
        <line x1="162" y1="64" x2="162" y2="76" class="solid"></line>
        <line x1="162" y1="76" x2="168" y2="76" class="solid"></line>
    </g>
    <g>
        <line x1="166" y1="64" x2="166" y2="72" class="solid"></line>
        <line x1="166" y1="72" x2="168" y2="72" class="solid"></line>
    </g>
    <g>
        <line x1="184" y1="72" x2="190" y2="72" class="solid"></line>
        <line x1="190" y1="72" x2="190" y2="80" class="solid"></line>
    </g>
    <g>
        <line x1="184" y1="76" x2="186" y2="76" class="solid"></line>
        <line x1="186" y1="76" x2="186" y2="80" class="solid"></line>
    </g>
    <g>
        <line x1="218" y1="64" x2="218" y2="76" class="solid"></line>
        <line x1="218" y1="76" x2="256" y2="76" class="solid"></line>
    </g>
    <g>
        <line x1="222" y1="64" x2="222" y2="72" class="solid"></line>
        <line x1="222" y1="72" x2="256" y2="72" class="solid"></line>
    </g>
    <g>
        <line x1="2" y1="80" x2="2" y2="92" class="solid"></line>
        <line x1="2" y1="92" x2="8" y2="92" class="solid"></line>
    </g>
    <g>
        <line x1="6" y1="80" x2="6" y2="88" class="solid"></line>
        <line x1="6" y1="88" x2="8" y2="88" class="solid"></line>
    </g>
    <g>
        <line x1="56" y1="88" x2="62" y2="88" class="solid"></line>
        <line x1="62" y1="88" x2="62" y2="108" class="solid"></line>
        <line x1="10" y1="96" x2="10" y2="108" class="solid"></line>
        <line x1="10" y1="108" x2="62" y2="108" class="solid"></line>
    </g>
    <g>
        <line x1="56" y1="92" x2="58" y2="92" class="solid"></line>
        <line x1="58" y1="92" x2="58" y2="104" class="solid"></line>
        <line x1="14" y1="96" x2="14" y2="104" class="solid"></line>
        <line x1="14" y1="104" x2="58" y2="104" class="solid"></line>
    </g>
    <g>
        <line x1="66" y1="80" x2="66" y2="92" class="solid"></line>
        <line x1="66" y1="92" x2="72" y2="92" class="solid"></line>
    </g>
    <g>
        <line x1="70" y1="80" x2="70" y2="88" class="solid"></line>
        <line x1="70" y1="88" x2="72" y2="88" class="solid"></line>
    </g>
    <g>
        <line x1="170" y1="80" x2="170" y2="92" class="solid"></line>
        <line x1="170" y1="92" x2="176" y2="92" class="solid"></line>
    </g>
    <g>
        <line x1="174" y1="80" x2="174" y2="88" class="solid"></line>
        <line x1="174" y1="88" x2="176" y2="88" class="solid"></line>
    </g>
    <g>
        <line x1="282" y1="80" x2="282" y2="92" class="solid"></line>
        <line x1="282" y1="92" x2="288" y2="92" class="solid"></line>
    </g>
    <g>
        <line x1="286" y1="80" x2="286" y2="88" class="solid"></line>
        <line x1="286" y1="88" x2="288" y2="88" class="solid"></line>
    </g>
    <g>
        <line x1="408" y1="88" x2="414" y2="88" class="solid"></line>
        <line x1="414" y1="88" x2="414" y2="108" class="solid"></line>
        <line x1="354" y1="96" x2="354" y2="108" class="solid"></line>
        <line x1="354" y1="108" x2="414" y2="108" class="solid"></line>
    </g>
    <g>
        <line x1="408" y1="92" x2="410" y2="92" class="solid"></line>
        <line x1="410" y1="92" x2="410" y2="104" class="solid"></line>
        <line x1="358" y1="96" x2="358" y2="104" class="solid"></line>
        <line x1="358" y1="104" x2="410" y2="104" class="solid"></line>
    </g>
    <g>
        <line x1="472" y1="88" x2="478" y2="88" class="solid"></line>
        <line x1="478" y1="88" x2="478" y2="108" class="solid"></line>
        <line x1="418" y1="96" x2="418" y2="108" class="solid"></line>
        <line x1="418" y1="108" x2="478" y2="108" class="solid"></line>
    </g>
    <g>
        <line x1="472" y1="92" x2="474" y2="92" class="solid"></line>
        <line x1="474" y1="92" x2="474" y2="104" class="solid"></line>
        <line x1="422" y1="96" x2="422" y2="104" class="solid"></line>
        <line x1="422" y1="104" x2="474" y2="104" class="solid"></line>
    </g>
</svg>